<svg width="80" height="80" viewBox="0 0 80 80" fill="none" xmlns="http://www.w3.org/2000/svg">
<circle cx="40" cy="40" r="40" fill="black"/>
<path fill-rule="evenodd" clip-rule="evenodd" d="M24.2427 23.5023C24.2427 22.5726 24.9964 21.8188 25.9262 21.8188H42.4243C43.3541 21.8188 44.1078 22.5726 44.1078 23.5023V40.0005H42.4243V41.684C32.3829 41.684 24.2427 33.5438 24.2427 23.5023ZM27.7043 25.1858C28.4776 32.0225 33.9041 37.4491 40.7408 38.2224V25.1858H27.7043Z" fill="white"/>
<path fill-rule="evenodd" clip-rule="evenodd" d="M25.9259 58.1819C24.9962 58.1819 24.2424 57.4282 24.2424 56.4984L24.2424 40.0002C24.2424 39.0705 24.9962 38.3167 25.9259 38.3167L42.4241 38.3167L42.4241 40.0002L44.1076 40.0002C44.1076 50.0417 35.9674 58.1819 25.9259 58.1819ZM27.6094 54.7203C34.4461 53.947 39.8727 48.5204 40.646 41.6837L27.6094 41.6837L27.6094 54.7203Z" fill="white"/>
<path fill-rule="evenodd" clip-rule="evenodd" d="M44.1079 25.2797V38.3163H57.1445C56.3712 31.4796 50.9447 26.053 44.1079 25.2797ZM58.9226 39.9998H60.6061C60.6061 29.9583 52.4659 21.8181 42.4245 21.8181V23.5016H40.741V39.9998C40.741 40.9295 41.4947 41.6833 42.4245 41.6833H58.9226V39.9998Z" fill="white"/>
<path fill-rule="evenodd" clip-rule="evenodd" d="M58.9225 38.3164C59.8522 38.3164 60.606 39.0701 60.606 39.9999C60.606 50.0413 52.4657 58.1816 42.4243 58.1816C41.4945 58.1816 40.7408 57.4278 40.7408 56.4981L40.7408 39.9999C40.7408 39.0701 41.4945 38.3164 42.4243 38.3164L58.9225 38.3164ZM57.1444 41.6834L44.1078 41.6834L44.1078 54.72C50.9445 53.9467 56.3711 48.5201 57.1444 41.6834Z" fill="white"/>
</svg>
