<svg width="229" height="80" viewBox="0 0 229 80" fill="none" xmlns="http://www.w3.org/2000/svg">
<circle cx="40" cy="40" r="40" fill="black"/>
<path fill-rule="evenodd" clip-rule="evenodd" d="M24.2427 23.5023C24.2427 22.5726 24.9964 21.8188 25.9262 21.8188H42.4243C43.3541 21.8188 44.1078 22.5726 44.1078 23.5023V40.0005H42.4243V41.684C32.3829 41.684 24.2427 33.5438 24.2427 23.5023ZM27.7043 25.1858C28.4776 32.0225 33.9041 37.4491 40.7408 38.2224V25.1858H27.7043Z" fill="white"/>
<path fill-rule="evenodd" clip-rule="evenodd" d="M25.9259 58.1819C24.9962 58.1819 24.2424 57.4282 24.2424 56.4984L24.2424 40.0002C24.2424 39.0705 24.9962 38.3167 25.9259 38.3167L42.4241 38.3167L42.4241 40.0002L44.1076 40.0002C44.1076 50.0417 35.9674 58.1819 25.9259 58.1819ZM27.6094 54.7203C34.4461 53.947 39.8727 48.5204 40.646 41.6837L27.6094 41.6837L27.6094 54.7203Z" fill="white"/>
<path fill-rule="evenodd" clip-rule="evenodd" d="M44.1079 25.2797V38.3163H57.1445C56.3712 31.4796 50.9447 26.053 44.1079 25.2797ZM58.9226 39.9998H60.6061C60.6061 29.9583 52.4659 21.8181 42.4245 21.8181V23.5016H40.741V39.9998C40.741 40.9295 41.4947 41.6833 42.4245 41.6833H58.9226V39.9998Z" fill="white"/>
<path fill-rule="evenodd" clip-rule="evenodd" d="M58.9225 38.3164C59.8522 38.3164 60.606 39.0701 60.606 39.9999C60.606 50.0413 52.4657 58.1816 42.4243 58.1816C41.4945 58.1816 40.7408 57.4278 40.7408 56.4981L40.7408 39.9999C40.7408 39.0701 41.4945 38.3164 42.4243 38.3164L58.9225 38.3164ZM57.1444 41.6834L44.1078 41.6834L44.1078 54.72C50.9445 53.9467 56.3711 48.5201 57.1444 41.6834Z" fill="white"/>
<path d="M98.64 33C98.48 33 98.344 32.952 98.232 32.856C98.136 32.744 98.088 32.608 98.088 32.448V16.776C98.088 16.6 98.136 16.464 98.232 16.368C98.344 16.256 98.48 16.2 98.64 16.2H104.088C106.504 16.2 108.248 16.744 109.32 17.832C110.392 18.904 110.952 20.528 111 22.704C111.016 23.168 111.024 23.792 111.024 24.576C111.024 25.36 111.016 25.992 111 26.472C110.952 27.992 110.696 29.232 110.232 30.192C109.784 31.136 109.072 31.84 108.096 32.304C107.12 32.768 105.824 33 104.208 33H98.64ZM104.088 30.96C105.192 30.96 106.064 30.808 106.704 30.504C107.36 30.2 107.832 29.72 108.12 29.064C108.424 28.392 108.592 27.496 108.624 26.376C108.656 25.416 108.672 24.816 108.672 24.576C108.672 24.32 108.656 23.728 108.624 22.8C108.592 21.216 108.216 20.064 107.496 19.344C106.776 18.608 105.6 18.24 103.968 18.24H100.44V30.96H104.088ZM119.315 33.24C117.667 33.24 116.347 32.736 115.355 31.728C114.379 30.704 113.843 29.312 113.747 27.552L113.723 26.736L113.747 25.944C113.859 24.216 114.403 22.84 115.379 21.816C116.371 20.792 117.675 20.28 119.291 20.28C121.067 20.28 122.443 20.848 123.419 21.984C124.395 23.104 124.883 24.624 124.883 26.544V26.952C124.883 27.112 124.827 27.248 124.715 27.36C124.619 27.456 124.491 27.504 124.331 27.504H116.027V27.72C116.075 28.76 116.387 29.648 116.963 30.384C117.555 31.104 118.331 31.464 119.291 31.464C120.027 31.464 120.627 31.32 121.091 31.032C121.571 30.728 121.923 30.416 122.147 30.096C122.291 29.904 122.395 29.792 122.459 29.76C122.539 29.712 122.675 29.688 122.867 29.688H124.043C124.187 29.688 124.307 29.728 124.403 29.808C124.499 29.888 124.547 30 124.547 30.144C124.547 30.496 124.323 30.92 123.875 31.416C123.443 31.912 122.827 32.344 122.027 32.712C121.243 33.064 120.339 33.24 119.315 33.24ZM122.603 25.848V25.776C122.603 24.672 122.299 23.776 121.691 23.088C121.099 22.384 120.299 22.032 119.291 22.032C118.283 22.032 117.483 22.384 116.891 23.088C116.315 23.776 116.027 24.672 116.027 25.776V25.848H122.603ZM132.073 33.24C130.953 33.24 130.009 33.064 129.241 32.712C128.489 32.344 127.921 31.928 127.537 31.464C127.169 31 126.985 30.616 126.985 30.312C126.985 30.152 127.041 30.032 127.153 29.952C127.281 29.856 127.409 29.808 127.537 29.808H128.617C128.777 29.808 128.921 29.888 129.049 30.048C129.433 30.496 129.849 30.848 130.297 31.104C130.745 31.36 131.345 31.488 132.097 31.488C132.929 31.488 133.601 31.328 134.113 31.008C134.641 30.672 134.905 30.216 134.905 29.64C134.905 29.256 134.793 28.944 134.569 28.704C134.361 28.448 133.993 28.232 133.465 28.056C132.953 27.864 132.185 27.656 131.161 27.432C129.769 27.128 128.777 26.688 128.185 26.112C127.609 25.536 127.321 24.792 127.321 23.88C127.321 23.272 127.497 22.696 127.849 22.152C128.217 21.592 128.745 21.144 129.433 20.808C130.137 20.456 130.977 20.28 131.953 20.28C132.977 20.28 133.849 20.448 134.569 20.784C135.289 21.12 135.825 21.52 136.177 21.984C136.545 22.432 136.729 22.808 136.729 23.112C136.729 23.256 136.673 23.376 136.561 23.472C136.465 23.568 136.345 23.616 136.201 23.616H135.193C135.001 23.616 134.841 23.536 134.713 23.376C134.457 23.072 134.233 22.84 134.041 22.68C133.865 22.504 133.601 22.352 133.249 22.224C132.913 22.096 132.481 22.032 131.953 22.032C131.185 22.032 130.593 22.2 130.177 22.536C129.761 22.856 129.553 23.28 129.553 23.808C129.553 24.144 129.641 24.432 129.817 24.672C129.993 24.896 130.329 25.104 130.825 25.296C131.337 25.488 132.073 25.688 133.033 25.896C134.553 26.216 135.625 26.68 136.249 27.288C136.889 27.88 137.209 28.64 137.209 29.568C137.209 30.256 137.009 30.88 136.609 31.44C136.209 32 135.617 32.44 134.833 32.76C134.065 33.08 133.145 33.24 132.073 33.24ZM140.347 18.192C140.187 18.192 140.051 18.144 139.939 18.048C139.843 17.936 139.795 17.8 139.795 17.64V16.344C139.795 16.184 139.843 16.048 139.939 15.936C140.051 15.824 140.187 15.768 140.347 15.768H141.859C142.019 15.768 142.155 15.824 142.267 15.936C142.379 16.048 142.435 16.184 142.435 16.344V17.64C142.435 17.8 142.379 17.936 142.267 18.048C142.155 18.144 142.019 18.192 141.859 18.192H140.347ZM140.539 33C140.379 33 140.243 32.952 140.131 32.856C140.035 32.744 139.987 32.608 139.987 32.448V21.072C139.987 20.912 140.035 20.784 140.131 20.688C140.243 20.576 140.379 20.52 140.539 20.52H141.691C141.851 20.52 141.979 20.576 142.075 20.688C142.187 20.784 142.243 20.912 142.243 21.072V32.448C142.243 32.608 142.187 32.744 142.075 32.856C141.979 32.952 141.851 33 141.691 33H140.539ZM150.911 38.28C149.599 38.28 148.543 38.056 147.743 37.608C146.943 37.176 146.375 36.68 146.039 36.12C145.703 35.56 145.519 35.056 145.487 34.608C145.471 34.448 145.519 34.312 145.631 34.2C145.759 34.088 145.895 34.032 146.039 34.032H147.191C147.335 34.032 147.455 34.064 147.551 34.128C147.647 34.208 147.727 34.344 147.791 34.536C147.983 35.048 148.295 35.488 148.727 35.856C149.175 36.24 149.863 36.432 150.791 36.432C151.975 36.432 152.847 36.176 153.407 35.664C153.967 35.168 154.247 34.28 154.247 33V31.368C153.831 31.896 153.303 32.32 152.663 32.64C152.023 32.944 151.263 33.096 150.383 33.096C148.687 33.096 147.415 32.56 146.567 31.488C145.735 30.4 145.295 29.024 145.247 27.36L145.223 26.688L145.247 26.04C145.295 24.392 145.743 23.024 146.591 21.936C147.439 20.832 148.703 20.28 150.383 20.28C152.063 20.28 153.375 20.896 154.319 22.128V21.096C154.319 20.936 154.367 20.8 154.463 20.688C154.575 20.576 154.711 20.52 154.871 20.52H155.975C156.135 20.52 156.271 20.576 156.383 20.688C156.495 20.8 156.551 20.936 156.551 21.096V32.736C156.551 36.432 154.671 38.28 150.911 38.28ZM150.863 31.176C151.951 31.176 152.775 30.816 153.335 30.096C153.895 29.376 154.199 28.52 154.247 27.528C154.263 27.384 154.271 27.104 154.271 26.688C154.271 26.288 154.263 26.016 154.247 25.872C154.199 24.88 153.895 24.024 153.335 23.304C152.791 22.584 151.967 22.224 150.863 22.224C149.727 22.224 148.903 22.576 148.391 23.28C147.879 23.984 147.599 24.912 147.551 26.064L147.527 26.688L147.551 27.336C147.599 28.472 147.879 29.4 148.391 30.12C148.903 30.824 149.727 31.176 150.863 31.176ZM160.672 33C160.512 33 160.376 32.952 160.264 32.856C160.168 32.744 160.12 32.608 160.12 32.448V21.072C160.12 20.912 160.168 20.784 160.264 20.688C160.376 20.576 160.512 20.52 160.672 20.52H161.8C161.96 20.52 162.088 20.576 162.184 20.688C162.296 20.784 162.352 20.912 162.352 21.072V22.128C162.816 21.536 163.36 21.08 163.984 20.76C164.624 20.44 165.416 20.28 166.36 20.28C167.896 20.28 169.088 20.776 169.936 21.768C170.8 22.744 171.232 24.048 171.232 25.68V32.448C171.232 32.608 171.176 32.744 171.064 32.856C170.968 32.952 170.84 33 170.68 33H169.48C169.32 33 169.184 32.952 169.072 32.856C168.976 32.744 168.928 32.608 168.928 32.448V25.8C168.928 24.664 168.648 23.784 168.088 23.16C167.544 22.536 166.752 22.224 165.712 22.224C164.704 22.224 163.904 22.544 163.312 23.184C162.72 23.808 162.424 24.68 162.424 25.8V32.448C162.424 32.608 162.368 32.744 162.256 32.856C162.16 32.952 162.032 33 161.872 33H160.672ZM185.861 33.24C184.117 33.24 182.669 32.808 181.517 31.944C180.365 31.08 179.757 29.816 179.693 28.152C179.693 28.008 179.741 27.888 179.837 27.792C179.933 27.68 180.061 27.624 180.221 27.624H181.517C181.853 27.624 182.061 27.808 182.141 28.176C182.237 29.2 182.629 29.96 183.317 30.456C184.005 30.952 184.869 31.2 185.909 31.2C187.109 31.2 188.029 30.808 188.669 30.024C189.325 29.224 189.653 28.152 189.653 26.808V18.288H181.133C180.973 18.288 180.837 18.24 180.725 18.144C180.629 18.032 180.581 17.896 180.581 17.736V16.752C180.581 16.592 180.629 16.464 180.725 16.368C180.837 16.256 180.973 16.2 181.133 16.2H191.477C191.653 16.2 191.789 16.256 191.885 16.368C191.997 16.464 192.053 16.6 192.053 16.776V26.856C192.053 28.808 191.501 30.36 190.397 31.512C189.309 32.664 187.797 33.24 185.861 33.24ZM199.154 33.24C198.37 33.24 197.642 33.08 196.97 32.76C196.298 32.44 195.762 32.008 195.362 31.464C194.978 30.904 194.786 30.288 194.786 29.616C194.786 28.56 195.218 27.696 196.082 27.024C196.962 26.336 198.146 25.888 199.634 25.68L203.21 25.176V24.48C203.21 22.848 202.274 22.032 200.402 22.032C199.698 22.032 199.122 22.184 198.674 22.488C198.226 22.776 197.89 23.12 197.666 23.52C197.618 23.664 197.554 23.768 197.474 23.832C197.41 23.896 197.314 23.928 197.186 23.928H196.154C196.01 23.928 195.882 23.88 195.77 23.784C195.674 23.672 195.626 23.544 195.626 23.4C195.642 23.016 195.818 22.584 196.154 22.104C196.506 21.608 197.042 21.184 197.762 20.832C198.482 20.464 199.37 20.28 200.426 20.28C202.218 20.28 203.506 20.704 204.29 21.552C205.074 22.384 205.466 23.424 205.466 24.672V32.448C205.466 32.608 205.41 32.744 205.298 32.856C205.202 32.952 205.074 33 204.914 33H203.81C203.65 33 203.514 32.952 203.402 32.856C203.306 32.744 203.258 32.608 203.258 32.448V31.416C202.906 31.928 202.394 32.36 201.722 32.712C201.05 33.064 200.194 33.24 199.154 33.24ZM199.658 31.44C200.698 31.44 201.546 31.104 202.202 30.432C202.874 29.744 203.21 28.76 203.21 27.48V26.808L200.426 27.216C199.29 27.376 198.434 27.648 197.858 28.032C197.282 28.4 196.994 28.872 196.994 29.448C196.994 30.088 197.258 30.584 197.786 30.936C198.314 31.272 198.938 31.44 199.658 31.44ZM209.469 33C209.309 33 209.173 32.952 209.061 32.856C208.965 32.744 208.917 32.608 208.917 32.448V21.072C208.917 20.912 208.965 20.784 209.061 20.688C209.173 20.576 209.309 20.52 209.469 20.52H210.549C210.709 20.52 210.837 20.576 210.933 20.688C211.045 20.784 211.101 20.912 211.101 21.072V21.912C211.933 20.824 213.093 20.28 214.581 20.28C216.357 20.28 217.613 21.016 218.349 22.488C218.733 21.816 219.277 21.28 219.981 20.88C220.685 20.48 221.477 20.28 222.357 20.28C223.669 20.28 224.741 20.728 225.573 21.624C226.405 22.52 226.821 23.816 226.821 25.512V32.448C226.821 32.608 226.765 32.744 226.653 32.856C226.557 32.952 226.429 33 226.269 33H225.141C224.981 33 224.845 32.952 224.733 32.856C224.637 32.744 224.589 32.608 224.589 32.448V25.728C224.589 24.48 224.325 23.584 223.797 23.04C223.285 22.496 222.605 22.224 221.757 22.224C221.005 22.224 220.357 22.504 219.813 23.064C219.269 23.608 218.997 24.496 218.997 25.728V32.448C218.997 32.608 218.941 32.744 218.829 32.856C218.733 32.952 218.605 33 218.445 33H217.317C217.157 33 217.021 32.952 216.909 32.856C216.813 32.744 216.765 32.608 216.765 32.448V25.728C216.765 24.48 216.493 23.584 215.949 23.04C215.421 22.496 214.749 22.224 213.933 22.224C213.181 22.224 212.533 22.504 211.989 23.064C211.445 23.608 211.173 24.488 211.173 25.704V32.448C211.173 32.608 211.117 32.744 211.005 32.856C210.909 32.952 210.781 33 210.621 33H209.469ZM98.28 63C98.12 63 97.976 62.944 97.848 62.832C97.736 62.704 97.68 62.56 97.68 62.4V46.8C97.68 46.624 97.736 46.48 97.848 46.368C97.976 46.256 98.12 46.2 98.28 46.2H101.496C101.672 46.2 101.816 46.256 101.928 46.368C102.056 46.48 102.12 46.624 102.12 46.8V62.4C102.12 62.576 102.056 62.72 101.928 62.832C101.816 62.944 101.672 63 101.496 63H98.28ZM105.797 63C105.621 63 105.477 62.944 105.365 62.832C105.253 62.72 105.197 62.576 105.197 62.4V51.12C105.197 50.944 105.253 50.8 105.365 50.688C105.477 50.576 105.621 50.52 105.797 50.52H108.557C108.733 50.52 108.877 50.576 108.989 50.688C109.117 50.8 109.181 50.944 109.181 51.12V52.032C109.613 51.504 110.165 51.08 110.837 50.76C111.525 50.44 112.301 50.28 113.165 50.28C114.573 50.28 115.717 50.76 116.597 51.72C117.477 52.664 117.917 53.992 117.917 55.704V62.4C117.917 62.56 117.861 62.704 117.749 62.832C117.637 62.944 117.493 63 117.317 63H114.293C114.133 63 113.989 62.944 113.861 62.832C113.749 62.704 113.693 62.56 113.693 62.4V55.848C113.693 55.096 113.509 54.52 113.141 54.12C112.773 53.704 112.245 53.496 111.557 53.496C110.885 53.496 110.357 53.704 109.973 54.12C109.589 54.52 109.397 55.096 109.397 55.848V62.4C109.397 62.56 109.341 62.704 109.229 62.832C109.117 62.944 108.973 63 108.797 63H105.797ZM125.275 63.24C123.707 63.24 122.483 62.752 121.603 61.776C120.739 60.784 120.267 59.392 120.187 57.6L120.163 56.76L120.187 55.896C120.251 54.168 120.723 52.8 121.603 51.792C122.499 50.784 123.723 50.28 125.275 50.28C126.731 50.28 127.907 50.752 128.803 51.696V46.56C128.803 46.384 128.859 46.24 128.971 46.128C129.083 46.016 129.227 45.96 129.403 45.96H132.331C132.507 45.96 132.651 46.016 132.763 46.128C132.875 46.24 132.931 46.384 132.931 46.56V62.4C132.931 62.56 132.875 62.704 132.763 62.832C132.651 62.944 132.507 63 132.331 63H129.619C129.459 63 129.315 62.944 129.187 62.832C129.075 62.704 129.019 62.56 129.019 62.4V61.632C128.139 62.704 126.891 63.24 125.275 63.24ZM126.595 60.024C127.315 60.024 127.851 59.8 128.203 59.352C128.555 58.888 128.755 58.296 128.803 57.576C128.819 57.368 128.827 57.064 128.827 56.664C128.827 56.28 128.819 55.984 128.803 55.776C128.771 55.12 128.571 54.576 128.203 54.144C127.835 53.712 127.299 53.496 126.595 53.496C125.843 53.496 125.299 53.72 124.963 54.168C124.643 54.616 124.459 55.232 124.411 56.016C124.395 56.176 124.387 56.424 124.387 56.76C124.387 57.096 124.395 57.344 124.411 57.504C124.459 58.288 124.643 58.904 124.963 59.352C125.299 59.8 125.843 60.024 126.595 60.024ZM141.664 63.24C139.68 63.24 138.152 62.768 137.08 61.824C136.008 60.88 135.424 59.552 135.328 57.84C135.312 57.632 135.304 57.272 135.304 56.76C135.304 56.248 135.312 55.888 135.328 55.68C135.424 53.984 136.024 52.664 137.128 51.72C138.232 50.76 139.744 50.28 141.664 50.28C143.6 50.28 145.12 50.76 146.224 51.72C147.328 52.664 147.928 53.984 148.024 55.68C148.04 55.888 148.048 56.248 148.048 56.76C148.048 57.272 148.04 57.632 148.024 57.84C147.928 59.552 147.344 60.88 146.272 61.824C145.2 62.768 143.664 63.24 141.664 63.24ZM141.664 60.312C142.368 60.312 142.888 60.104 143.224 59.688C143.56 59.256 143.752 58.6 143.8 57.72C143.816 57.56 143.824 57.24 143.824 56.76C143.824 56.28 143.816 55.96 143.8 55.8C143.752 54.936 143.552 54.288 143.2 53.856C142.864 53.424 142.352 53.208 141.664 53.208C140.336 53.208 139.632 54.072 139.552 55.8L139.528 56.76L139.552 57.72C139.584 58.6 139.768 59.256 140.104 59.688C140.456 60.104 140.976 60.312 141.664 60.312ZM151.032 63C150.856 63 150.712 62.944 150.6 62.832C150.488 62.72 150.432 62.576 150.432 62.4V51.12C150.432 50.944 150.488 50.8 150.6 50.688C150.712 50.576 150.856 50.52 151.032 50.52H153.792C153.968 50.52 154.112 50.576 154.224 50.688C154.352 50.8 154.416 50.944 154.416 51.12V52.032C154.848 51.504 155.4 51.08 156.072 50.76C156.76 50.44 157.536 50.28 158.4 50.28C159.808 50.28 160.952 50.76 161.832 51.72C162.712 52.664 163.152 53.992 163.152 55.704V62.4C163.152 62.56 163.096 62.704 162.984 62.832C162.872 62.944 162.728 63 162.552 63H159.528C159.368 63 159.224 62.944 159.096 62.832C158.984 62.704 158.928 62.56 158.928 62.4V55.848C158.928 55.096 158.744 54.52 158.376 54.12C158.008 53.704 157.48 53.496 156.792 53.496C156.12 53.496 155.592 53.704 155.208 54.12C154.824 54.52 154.632 55.096 154.632 55.848V62.4C154.632 62.56 154.576 62.704 154.464 62.832C154.352 62.944 154.208 63 154.032 63H151.032ZM171.614 63.24C169.694 63.24 168.182 62.72 167.078 61.68C165.974 60.64 165.398 59.128 165.35 57.144V56.304C165.414 54.416 165.998 52.944 167.102 51.888C168.222 50.816 169.718 50.28 171.59 50.28C172.95 50.28 174.094 50.56 175.022 51.12C175.966 51.664 176.67 52.416 177.134 53.376C177.614 54.336 177.854 55.44 177.854 56.688V57.264C177.854 57.424 177.798 57.568 177.686 57.696C177.574 57.808 177.43 57.864 177.254 57.864H169.574V58.032C169.606 58.784 169.79 59.392 170.126 59.856C170.462 60.32 170.95 60.552 171.59 60.552C171.99 60.552 172.318 60.472 172.574 60.312C172.83 60.136 173.062 59.928 173.27 59.688C173.414 59.512 173.526 59.408 173.606 59.376C173.702 59.328 173.846 59.304 174.038 59.304H177.014C177.158 59.304 177.278 59.352 177.374 59.448C177.486 59.528 177.542 59.64 177.542 59.784C177.542 60.2 177.302 60.68 176.822 61.224C176.358 61.768 175.678 62.24 174.782 62.64C173.886 63.04 172.83 63.24 171.614 63.24ZM173.63 55.488V55.44C173.63 54.656 173.446 54.04 173.078 53.592C172.726 53.128 172.23 52.896 171.59 52.896C170.966 52.896 170.47 53.128 170.102 53.592C169.75 54.04 169.574 54.656 169.574 55.44V55.488H173.63ZM185.24 63.24C183.944 63.24 182.856 63.056 181.976 62.688C181.112 62.32 180.472 61.88 180.056 61.368C179.64 60.856 179.432 60.4 179.432 60C179.432 59.84 179.488 59.712 179.6 59.616C179.728 59.504 179.864 59.448 180.008 59.448H182.744C182.84 59.448 182.928 59.488 183.008 59.568C183.2 59.696 183.344 59.8 183.44 59.88C183.792 60.136 184.096 60.328 184.352 60.456C184.624 60.568 184.952 60.624 185.336 60.624C185.8 60.624 186.176 60.536 186.464 60.36C186.768 60.168 186.92 59.904 186.92 59.568C186.92 59.296 186.84 59.08 186.68 58.92C186.536 58.76 186.248 58.608 185.816 58.464C185.384 58.304 184.728 58.136 183.848 57.96C182.52 57.688 181.496 57.248 180.776 56.64C180.072 56.016 179.72 55.184 179.72 54.144C179.72 53.488 179.928 52.864 180.344 52.272C180.76 51.68 181.376 51.2 182.192 50.832C183.024 50.464 184.008 50.28 185.144 50.28C186.28 50.28 187.272 50.456 188.12 50.808C188.968 51.16 189.608 51.592 190.04 52.104C190.488 52.6 190.712 53.056 190.712 53.472C190.712 53.616 190.656 53.744 190.544 53.856C190.448 53.968 190.328 54.024 190.184 54.024H187.688C187.56 54.024 187.44 53.984 187.328 53.904C187.12 53.792 186.936 53.672 186.776 53.544C186.504 53.336 186.248 53.176 186.008 53.064C185.768 52.952 185.472 52.896 185.12 52.896C184.704 52.896 184.368 52.992 184.112 53.184C183.872 53.376 183.752 53.624 183.752 53.928C183.752 54.168 183.816 54.368 183.944 54.528C184.088 54.688 184.376 54.848 184.808 55.008C185.256 55.152 185.912 55.304 186.776 55.464C188.328 55.736 189.456 56.216 190.16 56.904C190.88 57.592 191.24 58.4 191.24 59.328C191.24 60.512 190.712 61.464 189.656 62.184C188.6 62.888 187.128 63.24 185.24 63.24ZM193.945 48.72C193.769 48.72 193.625 48.664 193.513 48.552C193.401 48.44 193.345 48.296 193.345 48.12V45.96C193.345 45.784 193.401 45.64 193.513 45.528C193.625 45.416 193.769 45.36 193.945 45.36H196.825C197.001 45.36 197.145 45.416 197.257 45.528C197.369 45.64 197.425 45.784 197.425 45.96V48.12C197.425 48.296 197.369 48.44 197.257 48.552C197.145 48.664 197.001 48.72 196.825 48.72H193.945ZM193.969 63C193.793 63 193.649 62.944 193.537 62.832C193.425 62.72 193.369 62.576 193.369 62.4V51.12C193.369 50.944 193.425 50.8 193.537 50.688C193.649 50.576 193.793 50.52 193.969 50.52H196.801C196.977 50.52 197.121 50.576 197.233 50.688C197.345 50.8 197.401 50.944 197.401 51.12V62.4C197.401 62.56 197.345 62.704 197.233 62.832C197.121 62.944 196.977 63 196.801 63H193.969ZM203.98 63.24C203.132 63.24 202.356 63.08 201.652 62.76C200.964 62.424 200.42 61.976 200.02 61.416C199.636 60.84 199.444 60.208 199.444 59.52C199.444 58.416 199.892 57.528 200.788 56.856C201.7 56.184 202.948 55.72 204.532 55.464L207.532 55.008V54.672C207.532 54.064 207.404 53.616 207.148 53.328C206.892 53.04 206.46 52.896 205.852 52.896C205.484 52.896 205.18 52.96 204.94 53.088C204.7 53.216 204.452 53.392 204.196 53.616C203.972 53.808 203.804 53.936 203.692 54C203.644 54.128 203.556 54.192 203.428 54.192H200.812C200.652 54.192 200.516 54.144 200.404 54.048C200.308 53.936 200.268 53.808 200.284 53.664C200.3 53.232 200.508 52.752 200.908 52.224C201.324 51.696 201.948 51.24 202.78 50.856C203.628 50.472 204.668 50.28 205.9 50.28C207.868 50.28 209.324 50.72 210.268 51.6C211.212 52.464 211.684 53.632 211.684 55.104V62.4C211.684 62.56 211.628 62.704 211.516 62.832C211.404 62.944 211.26 63 211.084 63H208.3C208.14 63 207.996 62.944 207.868 62.832C207.756 62.704 207.7 62.56 207.7 62.4V61.56C207.348 62.056 206.852 62.464 206.212 62.784C205.588 63.088 204.844 63.24 203.98 63.24ZM205.108 60.504C205.844 60.504 206.436 60.264 206.884 59.784C207.348 59.304 207.58 58.6 207.58 57.672V57.336L205.54 57.696C204.1 57.952 203.38 58.456 203.38 59.208C203.38 59.608 203.548 59.928 203.884 60.168C204.22 60.392 204.628 60.504 205.108 60.504Z" fill="black"/>
</svg>
