<svg width="285" height="86" viewBox="0 0 285 86" fill="none" xmlns="http://www.w3.org/2000/svg">
<path d="M282 83H3V35H45V3H244V35H282V83Z" fill="#1533C9" stroke="#FFBB02" stroke-width="6"/>
<path d="M84.5259 24.7903V12.2307H75.1692V24.7903C75.1692 27.4534 74.1975 29.8645 68.6914 29.8645C63.1854 29.8645 62.2137 27.4894 62.2137 24.7903V12.2307H52.857V24.7903C52.857 33.5712 57.6073 37.7818 68.6914 37.7818C79.7396 37.7818 84.5259 33.5353 84.5259 24.7903ZM85.6029 37.4219H97.8386L104.172 30.2244L110.506 37.4219H122.742L110.83 24.8263L122.742 12.2307H110.506L104.172 19.4282L97.8386 12.2307H85.6029L97.5147 24.8263L85.6029 37.4219ZM176.8 12.2307H165.284L157.511 26.6257L149.738 12.2307H138.222V37.4219H147.578V25.4381L154.452 37.4219H160.57L167.443 25.4381V37.4219H176.8V12.2307ZM187.607 12.2307H178.251V37.4219H187.607V12.2307ZM212.144 12.2307V27.0935L201.276 12.2307H189.04V37.4219H198.397V22.5591L209.265 37.4219H221.501V12.2307H212.144ZM232.31 12.2307H222.954V37.4219H232.31V12.2307ZM39.689 59.3382C40.9125 57.8987 41.6683 56.2433 41.6683 54.6239C41.6683 50.8092 39.9049 48.2181 34.1829 48.2181H12.2307V73.4093H35.2625C40.9845 73.4093 43.4676 70.0985 43.4676 65.9599C43.4676 63.2249 41.8842 60.9217 39.689 59.3382ZM21.5874 54.336H30.2244C31.1601 54.336 32.3115 54.336 32.3115 55.7035C32.3115 57.071 31.1601 57.071 30.2244 57.071H21.5874V54.336ZM32.0236 66.5717H21.5874V63.9086H32.0236C32.9593 63.9086 34.1109 63.9086 34.1109 65.2402C34.1109 66.5717 32.9593 66.5717 32.0236 66.5717ZM59.3347 73.7692C70.3828 73.7692 75.1692 69.5227 75.1692 60.7777C75.1692 52.0688 70.3828 47.8582 59.3347 47.8582C48.2506 47.8582 43.5002 52.0328 43.5002 60.7777C43.5002 69.5587 48.2506 73.7692 59.3347 73.7692ZM59.3347 65.8519C53.8286 65.8519 52.857 63.4768 52.857 60.7777C52.857 58.1147 53.7926 55.7755 59.3347 55.7755C64.8768 55.7755 65.8124 58.1506 65.8124 60.7777C65.8124 63.4408 64.8408 65.8519 59.3347 65.8519ZM91.7376 73.7692C102.786 73.7692 107.572 69.5227 107.572 60.7777C107.572 52.0688 102.786 47.8582 91.7376 47.8582C80.6535 47.8582 75.9032 52.0328 75.9032 60.7777C75.9032 69.5587 80.6535 73.7692 91.7376 73.7692ZM91.7376 65.8519C86.2315 65.8519 85.2599 63.4768 85.2599 60.7777C85.2599 58.1147 86.1956 55.7755 91.7376 55.7755C97.2797 55.7755 98.2153 58.1506 98.2153 60.7777C98.2153 63.4408 97.2437 65.8519 91.7376 65.8519ZM138.904 48.2181H107.954V56.1353H118.751V73.4093H128.107V56.1353H138.904V48.2181ZM139.268 60.7777C139.268 69.5587 144.018 73.7692 155.102 73.7692C165.215 73.7692 170.433 70.2064 170.829 62.2172H161.256C160.896 64.6284 159.061 65.8519 155.102 65.8519C149.596 65.8519 148.624 63.4768 148.624 60.7777C148.624 58.1147 149.56 55.7755 155.102 55.7755C159.061 55.7755 160.896 56.9631 161.256 59.3382H170.829C170.433 51.385 165.179 47.8582 155.102 47.8582C144.018 47.8582 139.268 52.0328 139.268 60.7777ZM192.803 73.4093H203.095L192.659 48.2181H178.768L168.332 73.4093H178.624L180.351 68.8749H191.076L192.803 73.4093ZM182.799 62.3972L185.713 54.6959L188.628 62.3972H182.799ZM242.414 48.2181H230.898L223.125 62.6131L215.351 48.2181H203.835V73.4093H213.192V61.4255L220.066 73.4093H226.184L233.057 61.4255V73.4093H242.414V48.2181ZM263.658 48.2181H243.865V73.4093H253.221V67.5074H263.658C269.38 67.5074 273.302 63.4768 273.302 57.8627C273.302 52.2487 269.38 48.2181 263.658 48.2181ZM261.858 59.5901H253.221V56.1353H261.858C262.794 56.1353 263.946 56.1353 263.946 57.8627C263.946 59.5901 262.794 59.5901 261.858 59.5901Z" fill="white"/>
</svg>
